<svg width="4320" height="2395" viewBox="0 0 4320 2395" fill="none" xmlns="http://www.w3.org/2000/svg">
<path d="M1723.73 984.991H446.06V1097.56H1.40713V647.28H159.006L301.126 333.49C403.377 111.163 575.985 0 818.95 0H2055.82V647.28H2168.39V1097.56H1723.73V984.991ZM644.466 647.28H1611.16V337.711H928.706C834.897 337.711 768.293 380.394 728.894 465.76L644.466 647.28Z" fill="white"/>
<path d="M4320 984.991H3819.06L3705.08 844.278H2838.29L2724.31 984.991H2223.38L3021.22 0H3522.16L4320 984.991ZM3477.13 562.852L3271.69 309.569L3066.25 562.852H3477.13Z" fill="white"/>
<path d="M0 1407.13H1543.47C1641.67 1407.13 1729.45 1418.39 1806.83 1440.9C1884.2 1463.42 1949.66 1493.43 2003.23 1530.96C2056.79 1567.54 2097.71 1609.29 2125.98 1656.19C2154.25 1703.1 2168.39 1751.41 2168.39 1801.13C2168.39 1849.91 2154.25 1898.22 2125.98 1946.06C2097.71 1992.97 2056.79 2035.18 2003.23 2072.7C1949.66 2109.29 1884.2 2138.84 1806.83 2161.35C1729.45 2183.87 1641.67 2195.12 1543.47 2195.12H444.653V2392.12H0V1407.13ZM444.653 1744.84V1857.41H1364.92C1659.52 1857.41 1750.94 1823.41 1806.82 1801.13C1750.94 1782.36 1659.52 1744.84 1364.92 1744.84H444.653Z" fill="white"/>
<path d="M2863.98 2014.54V1761.26H3841.94C3825.99 1731.24 3801.6 1704.97 3768.77 1682.46C3735.93 1659.94 3691.38 1648.69 3635.09 1648.69H2805.97C2758.7 1648.69 2735.07 1667.45 2735.07 1704.97V1733.12H2225.85V1704.97C2225.85 1659.01 2237.67 1616.32 2261.3 1576.92C2284.94 1537.52 2318.24 1503.28 2361.21 1474.2C2405.26 1445.12 2457.9 1422.61 2519.13 1406.66C2581.44 1389.78 2650.2 1381.33 2725.4 1381.33H3826.46C3894 1381.33 3957.79 1394.94 4017.83 1422.14C4077.87 1449.34 4129.93 1486.4 4174.02 1533.3C4219.05 1579.27 4254.23 1633.21 4279.56 1695.12C4305.82 1756.1 4318.96 1820.36 4318.96 1887.9C4318.96 1955.44 4305.82 2020.17 4279.56 2082.08C4254.23 2143.06 4219.05 2197 4174.02 2243.9C4129.93 2289.87 4077.87 2326.46 4017.83 2353.66C3957.79 2380.86 3894 2394.47 3826.46 2394.47H2725.4C2650.2 2394.47 2581.44 2386.49 2519.13 2370.55C2457.9 2353.66 2405.26 2330.68 2361.21 2301.6C2318.24 2272.52 2284.94 2238.28 2261.3 2198.88C2237.67 2159.48 2225.85 2116.79 2225.85 2070.83V2042.68H2735.07V2070.83C2735.07 2108.35 2758.7 2127.11 2805.97 2127.11H3635.09C3691.38 2127.11 3735.93 2115.85 3768.77 2093.34C3801.6 2070.83 3825.99 2044.56 3841.94 2014.54H2863.98Z" fill="white"/>
</svg>
