<svg width="587" height="326" viewBox="0 0 587 326" fill="none" xmlns="http://www.w3.org/2000/svg">
<path d="M234.03 133.731H60.5611V149.015H0.191045V87.8805H21.588L40.8836 45.2776C54.7661 15.0925 78.2009 0 111.188 0H279.116V87.8805H294.4V149.015H234.03V133.731ZM87.4984 87.8805H218.746V45.8507H126.089C113.353 45.8507 104.31 51.6457 98.9611 63.2358L87.4984 87.8805Z" fill="white"/>
<path d="M586.522 133.731H518.51L503.035 114.627H385.352L369.877 133.731H301.865L410.188 0H478.2L586.522 133.731ZM472.086 76.4178L444.194 42.0298L416.301 76.4178H472.086Z" fill="white"/>
<path d="M0 191.045H209.555C222.888 191.045 234.806 192.573 245.311 195.63C255.815 198.686 264.704 202.762 271.976 207.857C279.249 212.824 284.804 218.491 288.642 224.86C292.481 231.228 294.4 237.787 294.4 244.537C294.4 251.16 292.481 257.719 288.642 264.215C284.804 270.583 279.249 276.314 271.976 281.409C264.704 286.376 255.815 290.388 245.311 293.445C234.806 296.501 222.888 298.03 209.555 298.03H60.3701V324.776H0V191.045ZM60.3701 236.895V252.179H185.313C225.312 252.179 237.724 247.562 245.311 244.537C237.724 241.99 225.312 236.895 185.313 236.895H60.3701Z" fill="white"/>
<path d="M388.84 273.512V239.124H521.616C519.451 235.049 516.139 231.482 511.682 228.426C507.224 225.369 501.174 223.841 493.532 223.841H380.964C374.546 223.841 371.337 226.388 371.337 231.482V235.303H302.201V231.482C302.201 225.242 303.806 219.447 307.015 214.097C310.223 208.748 314.745 204.099 320.579 200.151C326.559 196.203 333.706 193.146 342.02 190.981C350.48 188.688 359.815 187.542 370.025 187.542H519.515C528.685 187.542 537.345 189.389 545.497 193.082C553.648 196.776 560.716 201.807 566.703 208.175C572.816 214.416 577.592 221.739 581.031 230.145C584.597 238.424 586.38 247.148 586.38 256.318C586.38 265.488 584.597 274.276 581.031 282.682C577.592 290.961 572.816 298.284 566.703 304.652C560.716 310.893 553.648 315.86 545.497 319.554C537.345 323.247 528.685 325.094 519.515 325.094H370.025C359.815 325.094 350.48 324.012 342.02 321.846C333.706 319.554 326.559 316.434 320.579 312.485C314.745 308.537 310.223 303.888 307.015 298.539C303.806 293.19 302.201 287.395 302.201 281.154V277.333H371.337V281.154C371.337 286.249 374.546 288.796 380.964 288.796H493.532C501.174 288.796 507.224 287.267 511.682 284.211C516.139 281.154 519.451 277.588 521.616 273.512H388.84Z" fill="white"/>
</svg>
