<svg width="366" height="95" viewBox="0 0 366 95" fill="none" xmlns="http://www.w3.org/2000/svg">
<path d="M130.835 44.4293L118.674 56.4898L99.5497 25.9784L93.2237 15.8787L93.2109 15.8594L86.8721 25.9784L67.773 56.4641L63.2134 51.9382L55.612 44.4035L49.7706 52.5875L31.7173 77.8594H44.6945L57.0596 60.7843L61.8806 65.5481L69.7562 73.3849L75.5912 64.2173L93.2173 36.0974L93.2237 36.0782V36.1103L110.85 64.243L116.697 73.4877L124.573 65.7474L129.49 60.8872L141.74 77.8594H154.717L136.683 52.6132L130.835 44.4293Z" fill="white"/>
<path d="M307.422 75.1386V66.8594H305.717V77.8594H307.704L313.012 69.4957V77.8594H314.717V66.8594H312.73L307.422 75.1386Z" fill="white"/>
<path d="M190.28 66.8594H188.519V75.4557H184.405V66.8594H182.651V75.4557H178.471V66.8594H176.717V77.0285H189.963V78.8594H191.717V75.4557H190.28V66.8594Z" fill="white"/>
<path d="M194.233 75.1386V66.8594H192.717V77.8594H194.484L199.202 69.4957V77.8594H200.717V66.8594H198.951L194.233 75.1386Z" fill="white"/>
<path d="M330.15 63.597C329.886 63.795 329.566 63.899 329.184 63.899C328.802 63.899 328.504 63.8049 328.257 63.6118C328.021 63.4138 327.903 63.1614 327.903 62.8594H326.717C326.717 63.4188 326.953 63.894 327.425 64.2851C327.908 64.6663 328.487 64.8594 329.167 64.8594C329.846 64.8594 330.453 64.6614 330.959 64.2604C331.464 63.8594 331.717 63.394 331.717 62.8594H330.538C330.538 63.1465 330.403 63.394 330.144 63.602L330.15 63.597Z" fill="white"/>
<path d="M173.917 68.5607V72.2035H170.813C170.188 72.2035 169.658 72.0217 169.237 71.6711C168.823 71.3139 168.612 70.8724 168.612 70.3529C168.612 69.8334 168.823 69.4178 169.237 69.0802C169.652 68.736 170.181 68.5607 170.813 68.5607H173.917ZM167.818 67.8529C167.084 68.5022 166.717 69.3529 166.717 70.3983C166.717 71.275 167.016 72.0347 167.621 72.6581C168.225 73.275 168.979 73.6321 169.889 73.7295L166.717 77.8594H168.837L171.907 73.8854H173.91V77.8594H175.717V66.8594H170.637C169.495 66.8594 168.551 67.1905 167.811 67.8464L167.818 67.8529Z" fill="white"/>
<path d="M256.008 73.5217L257.735 68.6516L259.443 73.5217H256.008ZM256.699 66.8594L252.717 77.8594H254.472L255.427 75.1581H260.013L260.962 77.8594H262.717L258.707 66.8594H256.699Z" fill="white"/>
<path d="M316.717 77.8594H322.717V76.1581H318.091V73.1905H322.413V71.4892H318.091V68.5542H322.717V66.8594H316.717V77.8594Z" fill="white"/>
<path d="M331.735 66.8594L326.424 75.1386V66.8594H324.717V77.8594H326.706L332.011 69.4957V77.8594H333.717V66.8594H331.735Z" fill="white"/>
<path d="M242.717 77.8594H244.743V68.4763H251.717V66.8594H242.717V77.8594Z" fill="white"/>
<path d="M234.532 75.368C233.877 75.8314 233.145 76.0664 232.343 76.0664C231.244 76.0664 230.32 75.6702 229.562 74.8778C228.804 74.0787 228.425 73.0647 228.425 71.856C228.425 70.6473 228.804 69.64 229.562 68.8476C230.32 68.0485 231.244 67.6456 232.343 67.6456C233.132 67.6456 233.845 67.8672 234.487 68.3104C235.142 68.7536 235.63 69.358 235.964 70.1302L237.64 69.4788C237.152 68.3641 236.439 67.4777 235.495 66.8331C234.551 66.1817 233.498 65.8594 232.343 65.8594C231.302 65.8594 230.358 66.1213 229.498 66.6383C228.637 67.1487 227.963 67.8605 227.462 68.7805C226.968 69.7005 226.717 70.7279 226.717 71.856C226.717 72.9842 226.968 74.0049 227.462 74.9316C227.957 75.8515 228.637 76.5768 229.498 77.0938C230.358 77.6042 231.309 77.8594 232.343 77.8594C233.53 77.8594 234.609 77.5169 235.573 76.8387C236.536 76.1604 237.249 75.2337 237.717 74.0787L236.022 73.4475C235.695 74.26 235.194 74.9047 234.532 75.3815V75.368Z" fill="white"/>
<path d="M277.338 73.5217L279.236 68.6516L281.116 73.5217H277.338ZM278.097 66.8594L273.717 77.8594H275.648L276.698 75.1581H281.743L282.787 77.8594H284.717L280.306 66.8594H278.103H278.097Z" fill="white"/>
<path d="M208.655 66.8594L204.756 71.5087H204.294V66.8594H202.717V77.8594H204.294V73.2879H204.756L208.655 77.8594H210.717L206.113 72.3724L210.717 66.8594H208.655Z" fill="white"/>
<path d="M270.199 72.0737C269.731 72.4698 269.147 72.6711 268.462 72.6711H265.523V68.5542H268.462C269.161 68.5542 269.744 68.749 270.199 69.1386C270.668 69.5152 270.905 69.9957 270.905 70.5866C270.905 71.1776 270.668 71.684 270.199 72.0801V72.0737ZM268.625 66.8594H263.717V77.8594H265.523V74.3724H268.462C269.643 74.3724 270.647 74.0022 271.468 73.275C272.303 72.5412 272.717 71.6451 272.717 70.5866C272.717 69.5282 272.33 68.6321 271.55 67.9308C270.769 67.2165 269.799 66.8594 268.625 66.8594Z" fill="white"/>
<path d="M296.717 68.5542H299.915V77.8594H301.52V68.5542H304.717V66.8594H296.717V68.5542Z" fill="white"/>
<path d="M214.424 75.1386V66.8594H212.717V77.8594H214.699L220.011 69.4957V77.8594H221.717V66.8594H219.729L214.424 75.1386Z" fill="white"/>
<path d="M293.006 71.4892H287.422V66.8594H285.717V77.8594H287.422V73.1905H293.006V77.8594H294.717V66.8594H293.006V71.4892Z" fill="white"/>
<path d="M279.717 49.8594H273.717V56.8594H279.717V49.8594Z" fill="white"/>
<path d="M290.792 22.5727V36.1122H293.661C295.647 36.1122 296.643 34.8562 296.643 32.3441V26.3473C296.643 23.8352 295.647 22.5792 293.661 22.5792H290.792V22.5727ZM293.661 16.8594C299.699 16.8594 302.717 20.1573 302.717 26.7467V31.9447C302.717 38.5341 299.699 41.832 293.661 41.832H290.792V56.8594H284.717V16.8658H293.661V16.8594Z" fill="white"/>
<path d="M316.195 27.2104H313.898C311.847 27.2104 310.819 28.5244 310.819 31.1524V42.8626C310.819 45.5293 311.847 46.8626 313.898 46.8626H316.195V27.2104ZM322.24 27.2104V46.8626H324.536C326.587 46.8626 327.616 45.5293 327.616 42.8626V31.1524C327.616 28.5244 326.587 27.2104 324.536 27.2104H322.24ZM316.195 52.3441H313.898C307.778 52.3441 304.717 49.0462 304.717 42.4568V31.5454C304.717 24.956 307.778 21.6581 313.898 21.6581H316.195V16.8594H322.24V21.6581H324.536C330.657 21.6581 333.717 24.956 333.717 31.5454V42.4568C333.717 49.0462 330.657 52.3441 324.536 52.3441H322.24V56.8594H316.195V52.3441Z" fill="white"/>
<path d="M172.792 22.5727V36.1122H175.661C177.647 36.1122 178.643 34.8562 178.643 32.3441V26.3473C178.643 23.8352 177.647 22.5792 175.661 22.5792H172.792V22.5727ZM175.661 16.8594C181.699 16.8594 184.717 20.1573 184.717 26.7467V31.9447C184.717 38.5341 181.699 41.832 175.661 41.832H172.792V56.8594H166.717V16.8658H175.661V16.8594Z" fill="white"/>
<path d="M193.58 33.7188H201.637V39.4331H193.58V51.1451H203.717V56.8594H187.717V16.8594H203.717V22.5737H193.58V33.7188Z" fill="white"/>
<path d="M219.195 27.2104H216.898C214.847 27.2104 213.819 28.5244 213.819 31.1524V42.8626C213.819 45.5293 214.847 46.8626 216.898 46.8626H219.195V27.2104ZM225.24 27.2104V46.8626H227.536C229.587 46.8626 230.616 45.5293 230.616 42.8626V31.1524C230.616 28.5244 229.587 27.2104 227.536 27.2104H225.24ZM219.195 52.3441H216.898C210.778 52.3441 207.717 49.0462 207.717 42.4568V31.5454C207.717 24.956 210.778 21.6581 216.898 21.6581H219.195V16.8594H225.24V21.6581H227.536C233.657 21.6581 236.717 24.956 236.717 31.5454V42.4568C236.717 49.0462 233.657 52.3441 227.536 52.3441H225.24V56.8594H219.195V52.3441Z" fill="white"/>
<path d="M263.322 56.8529V16.8594H269.717V56.8529H263.322ZM250.133 51.1396C252.223 51.1396 253.271 49.8835 253.271 47.3715V41.3747C253.271 38.8626 252.223 37.6066 250.133 37.6066H247.112V51.146H250.133V51.1396ZM240.717 56.8529V16.8594H247.112V31.8868H250.133C256.488 31.8868 259.666 35.1847 259.666 41.774V46.9721C259.666 53.5615 256.488 56.8594 250.133 56.8594H240.717V56.8529Z" fill="white"/>
</svg>
