<svg width="105" height="36" viewBox="0 0 105 36" fill="none" xmlns="http://www.w3.org/2000/svg">
<g clip-path="url(#clip0_301_1447)">
<path d="M34.2559 12.1543C32.4247 5.01566 26.6148 0 14.5576 0H0.000244141L1.97653 13.3625C3.46315 25.4197 8.07448 29.2986 16.2351 30.7271C16.273 30.733 16.5317 30.7698 16.5349 30.4674C16.536 30.3585 16.4672 30.2647 16.3727 30.2241C10.8568 27.9016 10.2273 20.2856 9.04902 12.6429L8.13742 6.55188H16.4474C24.1088 6.55188 30.0243 6.4308 33.7694 12.3453C33.8249 12.4285 33.9118 12.4898 34.0148 12.4898C34.1593 12.4898 34.2671 12.3725 34.2671 12.2279C34.2671 12.2018 34.2633 12.1767 34.2564 12.1543H34.2559Z" fill="#5FAF2D"/>
<path d="M29.1629 30.8153L25.7251 25.1014L22.3582 30.8153H18.3278L23.5056 22.2087L18.228 14.2188H22.4388L25.8195 19.5534L29.044 14.2188H33.0744L27.8822 22.4695L33.2169 30.8153H29.1624H29.1629Z" fill="black"/>
<path d="M46.3194 25.1724C46.3194 28.8236 43.5691 31.0996 39.9654 31.0996C36.7884 31.0996 34.1139 29.3453 33.853 25.5282H37.2909C37.5277 27.1876 38.8559 27.8992 40.302 27.8992C42.1038 27.8992 42.8815 26.6899 42.8815 25.1254C42.8815 23.561 41.6723 22.4701 39.9888 22.4701C38.5902 22.4701 37.6653 23.1342 37.2386 23.8453H33.9528L35.0884 14.2193H45.8964L45.5358 17.4438H37.8045L37.4973 20.6293C37.4973 20.6293 38.3091 19.6729 40.7703 19.6729C43.735 19.6729 46.3194 21.6631 46.3194 25.1735V25.1724Z" fill="black"/>
<path d="M50.0249 14.2297H52.1809V22.2384L60.5688 14.2297H63.3884L55.5692 21.7412L63.9571 30.8161H61.1134L53.9577 23.1628L52.1809 24.8686V30.8161H50.0249V14.2297Z" fill="black"/>
<path d="M74.6212 20.3671H69.3138V21.1016C69.3138 24.4823 68.974 26.9819 68.295 28.6008C67.616 30.2202 66.5571 31.0294 65.1201 31.0294C64.9937 31.0294 64.879 31.0257 64.7766 31.0177C64.6737 31.0097 64.583 30.9974 64.504 30.9819V29.0627C64.567 29.0787 64.6422 29.0862 64.7291 29.0862H64.9782C65.3884 29.0862 65.7485 28.9363 66.0563 28.636C66.3646 28.3362 66.6169 27.862 66.8142 27.2145C67.0116 26.5669 67.1615 25.7417 67.2644 24.7384C67.3668 23.7356 67.4186 22.5226 67.4186 21.101V18.4948H76.6125V30.816H74.6218V20.3665L74.6212 20.3671Z" fill="black"/>
<path d="M83.8845 30.3658L78.3872 18.4948H80.7331L84.9034 27.7356L88.3631 18.4948H90.5431L83.9795 35.5549H81.7994L83.8845 30.3658Z" fill="black"/>
<path d="M98.4326 31.0292C97.4527 31.0292 96.5646 30.867 95.7671 30.5432C94.9691 30.2194 94.2864 29.7458 93.7172 29.1217C93.1486 28.4976 92.7101 27.7279 92.4024 26.8115C92.0946 25.8956 91.9404 24.8448 91.9404 23.6601C91.9404 22.1596 91.9836 20.888 92.0706 19.8451C92.1575 18.8023 92.3037 17.9259 92.509 17.2149C92.7144 16.5039 92.979 15.9278 93.3028 15.485C93.6265 15.0428 94.0255 14.6796 94.4992 14.3953C94.9414 14.127 95.3916 13.9371 95.8498 13.8267C96.308 13.7162 96.7699 13.649 97.2361 13.625C97.7018 13.6016 98.168 13.6016 98.6342 13.625C99.0999 13.6485 99.5703 13.6608 100.044 13.6608C100.802 13.6608 101.319 13.6058 101.596 13.4949C101.873 13.3845 102.011 13.1711 102.011 12.8553H103.788C103.788 13.361 103.729 13.7835 103.61 14.1227C103.492 14.4625 103.29 14.7388 103.006 14.9522C102.722 15.1655 102.35 15.3159 101.892 15.4024C101.434 15.4893 100.873 15.5325 100.21 15.5325C99.8621 15.5325 99.4871 15.517 99.0844 15.485C98.6817 15.4536 98.2747 15.4418 97.8645 15.4493C97.4532 15.4573 97.0473 15.5005 96.644 15.5795C96.2413 15.6589 95.8658 15.8008 95.5186 16.0062C95.2182 16.1801 94.9697 16.3934 94.7723 16.6457C94.5744 16.8986 94.4128 17.2261 94.2864 17.6293C94.1594 18.0321 94.065 18.5297 94.0021 19.1224C93.9386 19.715 93.8911 20.4372 93.8602 21.2907C94.4128 20.4378 95.1313 19.7977 96.0162 19.3715C96.9006 18.9447 97.8645 18.7319 98.9073 18.7319C99.7602 18.7319 100.542 18.8706 101.253 19.1464C101.964 19.4227 102.572 19.8217 103.078 20.3428C103.583 20.864 103.978 21.496 104.263 22.2386C104.547 22.9811 104.689 23.8185 104.689 24.7504C104.689 25.6823 104.539 26.4562 104.239 27.2147C103.938 27.9733 103.512 28.6363 102.96 29.2054C102.406 29.774 101.747 30.2205 100.981 30.5443C100.215 30.8681 99.3655 31.0302 98.4342 31.0302L98.4326 31.0292ZM98.4086 29.1574C99.1036 29.1574 99.7154 29.047 100.245 28.8256C100.774 28.6043 101.212 28.3008 101.559 27.9135C101.907 27.5268 102.168 27.0723 102.341 26.5512C102.515 26.03 102.602 25.4694 102.602 24.8688C102.602 24.2682 102.511 23.6841 102.33 23.163C102.148 22.6418 101.883 22.1916 101.536 21.8124C101.188 21.4331 100.758 21.1371 100.245 20.9237C99.7314 20.7103 99.1425 20.6036 98.4795 20.6036C97.737 20.6036 97.0894 20.7141 96.5368 20.9354C95.9837 21.1568 95.5218 21.4448 95.1505 21.8001C94.7792 22.1553 94.4987 22.5666 94.3093 23.0323C94.1199 23.4985 94.025 23.9764 94.025 24.4661C94.025 25.1611 94.1317 25.7969 94.345 26.3736C94.5584 26.9502 94.8582 27.4441 95.2454 27.8543C95.6322 28.2656 96.0946 28.5851 96.6318 28.8139C97.1689 29.0433 97.761 29.1574 98.4091 29.1574H98.4086Z" fill="black"/>
</g>
<defs>
<clipPath id="clip0_301_1447">
<rect width="104.889" height="35.5556" fill="white"/>
</clipPath>
</defs>
</svg>
